<?xml version="1.0" encoding="UTF-8" standalone="no"?>
<!-- Created with Inkscape (http://www.inkscape.org/) -->

<svg
   xmlns:dc="http://purl.org/dc/elements/1.1/"
   xmlns:cc="http://creativecommons.org/ns#"
   xmlns:rdf="http://www.w3.org/1999/02/22-rdf-syntax-ns#"
   xmlns:svg="http://www.w3.org/2000/svg"
   xmlns="http://www.w3.org/2000/svg"
   xmlns:sodipodi="http://sodipodi.sourceforge.net/DTD/sodipodi-0.dtd"
   xmlns:inkscape="http://www.inkscape.org/namespaces/inkscape"
   width="225"
   height="225"
   id="svg2"
   version="1.1"
   inkscape:version="0.48.4 r9939"
   sodipodi:docname="New document 1">
  <defs
     id="defs4" />
  <sodipodi:namedview
     id="base"
     pagecolor="#ffffff"
     bordercolor="#666666"
     borderopacity="1.0"
     inkscape:pageopacity="0.0"
     inkscape:pageshadow="2"
     inkscape:zoom="1.979899"
     inkscape:cx="128.50122"
     inkscape:cy="135.35583"
     inkscape:document-units="px"
     inkscape:current-layer="layer1"
     showgrid="true"
     borderlayer="true"
     inkscape:showpageshadow="false"
     inkscape:snap-bbox="true"
     inkscape:window-width="1280"
     inkscape:window-height="776"
     inkscape:window-x="0"
     inkscape:window-y="24"
     inkscape:window-maximized="1">
    <inkscape:grid
       type="xygrid"
       id="grid2985"
       empspacing="1"
       visible="true"
       enabled="true"
       snapvisiblegridlinesonly="true"
       spacingx="15px"
       spacingy="15px"
       dotted="true" />
  </sodipodi:namedview>
  <metadata
     id="metadata7">
    <rdf:RDF>
      <cc:Work
         rdf:about="">
        <dc:format>image/svg+xml</dc:format>
        <dc:type
           rdf:resource="http://purl.org/dc/dcmitype/StillImage" />
        <dc:title></dc:title>
      </cc:Work>
    </rdf:RDF>
  </metadata>
  <g
     inkscape:label="Layer 1"
     inkscape:groupmode="layer"
     id="layer1"
     transform="translate(0,-827.36218)">
    <rect
       style="fill:#000000;stroke:none"
       id="rect3052"
       width="15"
       height="15"
       x="30"
       y="45"
       transform="translate(0,827.36218)" />
    <rect
       style="fill:#000000;stroke:none"
       id="rect3054"
       width="15"
       height="15"
       x="45"
       y="30"
       transform="translate(0,827.36218)" />
    <rect
       style="fill:#000000;stroke:none"
       id="rect3056"
       width="15"
       height="15"
       x="30"
       y="60"
       transform="translate(0,827.36218)" />
    <rect
       style="fill:#000000;stroke:none"
       id="rect3058"
       width="15"
       height="15"
       x="30"
       y="75"
       transform="translate(0,827.36218)" />
    <rect
       style="fill:#000000;stroke:none"
       id="rect3060"
       width="15"
       height="15"
       x="45"
       y="90"
       transform="translate(0,827.36218)" />
    <rect
       style="fill:#000000;stroke:none"
       id="rect3062"
       width="15"
       height="15"
       x="45"
       y="105"
       transform="translate(0,827.36218)" />
    <rect
       style="fill:#000000;stroke:none"
       id="rect3066"
       width="15"
       height="15"
       x="30"
       y="962.36218" />
    <rect
       style="fill:#000000;stroke:none"
       id="rect3068"
       width="15"
       height="15"
       x="30"
       y="977.36218" />
    <rect
       style="fill:#000000;stroke:none"
       id="rect3070"
       width="15"
       height="15"
       x="30"
       y="992.36218" />
    <rect
       style="fill:#000000;stroke:none"
       id="rect3072"
       width="15"
       height="15"
       x="45"
       y="1007.3622" />
    <rect
       style="fill:#000000;stroke:none"
       id="rect3072-0"
       width="15"
       height="15"
       x="60"
       y="1007.3622" />
    <rect
       style="fill:#000000;stroke:none"
       id="rect3072-3"
       width="15"
       height="15"
       x="75"
       y="1007.3622" />
    <rect
       style="fill:#000000;stroke:none"
       id="rect3072-32"
       width="15"
       height="15"
       x="90"
       y="992.36218" />
    <rect
       style="fill:#000000;stroke:none"
       id="rect3072-5"
       width="15"
       height="15"
       x="105"
       y="992.36218" />
    <rect
       style="fill:#000000;stroke:none"
       id="rect3072-38"
       width="15"
       height="15"
       x="135"
       y="1007.3622" />
    <rect
       style="fill:#000000;stroke:none"
       id="rect3072-33"
       width="15"
       height="15"
       x="150"
       y="1007.3622" />
    <rect
       style="fill:#000000;stroke:none"
       id="rect3072-6"
       width="15"
       height="15"
       x="165"
       y="1007.3622" />
    <rect
       style="fill:#000000;stroke:none"
       id="rect3072-2"
       width="15"
       height="15"
       x="180"
       y="992.36218" />
    <rect
       style="fill:#000000;stroke:none"
       id="rect3072-36"
       width="15"
       height="15"
       x="180"
       y="977.36218" />
    <rect
       style="fill:#000000;stroke:none"
       id="rect3072-9"
       width="15"
       height="15"
       x="180"
       y="962.36218" />
    <rect
       style="fill:#000000;stroke:none"
       id="rect3072-1"
       width="15"
       height="15"
       x="165"
       y="932.36218" />
    <rect
       style="fill:#000000;stroke:none"
       id="rect3072-7"
       width="15"
       height="15"
       x="165"
       y="917.36218" />
    <rect
       style="fill:#000000;stroke:none"
       id="rect3072-34"
       width="15"
       height="15"
       x="180"
       y="902.36218" />
    <rect
       style="fill:#000000;stroke:none"
       id="rect3072-20"
       width="15"
       height="15"
       x="180"
       y="887.36218" />
    <rect
       style="fill:#000000;stroke:none"
       id="rect3072-55"
       width="15"
       height="15"
       x="180"
       y="872.36218" />
    <rect
       style="fill:#000000;stroke:none"
       id="rect3072-71"
       width="15"
       height="15"
       x="165"
       y="857.36218" />
    <rect
       style="fill:#000000;stroke:none"
       id="rect3072-4"
       width="15"
       height="15"
       x="150"
       y="857.36218" />
    <rect
       style="fill:#000000;stroke:none"
       id="rect3072-03"
       width="15"
       height="15"
       x="135"
       y="857.36218" />
    <rect
       style="fill:#000000;stroke:none"
       id="rect3072-04"
       width="15"
       height="15"
       x="105"
       y="872.36218" />
    <rect
       style="fill:#000000;stroke:none"
       id="rect3072-56"
       width="15"
       height="15"
       x="90"
       y="872.36218" />
    <rect
       style="fill:#000000;stroke:none"
       id="rect3072-97"
       width="15"
       height="15"
       x="75"
       y="857.36218" />
    <rect
       style="fill:#000000;stroke:none"
       id="rect3072-327"
       width="15"
       height="15"
       x="60"
       y="857.36218" />
    <rect
       style="fill:#000000;stroke:none"
       id="rect3072-67"
       width="15"
       height="15"
       x="90"
       y="917.36218" />
    <rect
       style="fill:#000000;stroke:none"
       id="rect3072-63"
       width="15"
       height="15"
       x="90"
       y="932.36218" />
    <rect
       style="fill:#000000;stroke:none"
       id="rect3072-30"
       width="15"
       height="15"
       x="105"
       y="932.36218" />
    <rect
       style="fill:#000000;stroke:none"
       id="rect3072-69"
       width="15"
       height="15"
       x="105"
       y="917.36218" />
    <path
       style="fill:#808080;stroke:none"
       d="m 45.255016,142.45407 0,-22.22336 7.576144,0 7.576144,0 0,-15.15229 0,-15.152286 -7.576144,0 -7.576144,0 0,-22.223356 0,-22.223356 22.223356,0 22.223356,0 0,7.323605 0,7.323606 15.152292,0 15.15228,0 0,-7.323606 0,-7.323605 22.4759,0 22.47589,0 0,22.223356 0,22.223356 -7.57614,0 -7.57615,0 0,15.152286 0,15.15229 7.57615,0 7.57614,0 0,22.22336 0,22.22335 -22.47589,0 -22.4759,0 0,-7.57614 0,-7.57615 -15.15228,0 -15.152292,0 0,7.57615 0,7.57614 -22.223356,0 -22.223356,0 0,-22.22335 z m 74.751284,-37.37565 0,-15.152286 -15.15228,0 -15.152292,0 0,15.152286 0,15.15229 15.152292,0 15.15228,0 0,-15.15229 z"
       id="path3281"
       inkscape:connector-curvature="0"
       transform="translate(0,827.36218)" />
    <rect
       style="fill:#000000;stroke:none"
       id="rect3072-19"
       width="15"
       height="15"
       x="120"
       y="872.36218" />
    <rect
       style="fill:#000000;stroke:none"
       id="rect3072-65"
       width="15"
       height="15"
       x="165"
       y="947.36218" />
    <rect
       style="fill:#000000;stroke:none"
       id="rect3072-58"
       width="15"
       height="15"
       x="120"
       y="992.36218" />
    <rect
       style="fill:#000000;stroke:none"
       id="rect3072-8"
       width="15"
       height="15"
       x="45"
       y="947.36218" />
    <path
       style="fill:#808080;stroke:none"
       d="m 45.255016,172.25357 0,-7.57615 22.223356,0 22.223356,0 0,7.57615 0,7.57614 -22.223356,0 -22.223356,0 0,-7.57614 z"
       id="path3318"
       inkscape:connector-curvature="0"
       transform="translate(0,827.36218)" />
    <path
       style="fill:#808080;stroke:none"
       d="m 89.701728,157.10128 0,-7.57615 15.152292,0 15.15228,0 0,7.57615 0,7.57614 -15.15228,0 -15.152292,0 0,-7.57614 z"
       id="path3320"
       inkscape:connector-curvature="0"
       transform="translate(0,827.36218)" />
    <path
       style="fill:#808080;stroke:none"
       d="m 135.15859,172.25357 0,-7.57615 14.89975,0 14.89975,0 0,-14.64721 0,-14.64721 7.32361,0 7.3236,0 0,22.22335 0,22.22336 -22.22335,0 -22.22336,0 0,-7.57614 z"
       id="path3322"
       inkscape:connector-curvature="0"
       transform="translate(0,827.36218)" />
    <path
       style="fill:#808080;stroke:none"
       d="m 149.8058,105.07842 0,-15.152286 7.57615,0 7.57614,0 0,15.152286 0,15.15229 -7.57614,0 -7.57615,0 0,-15.15229 z"
       id="path3324"
       inkscape:connector-curvature="0"
       transform="translate(0,827.36218)" />
    <path
       style="fill:#808080;stroke:none"
       d="m 164.95809,67.702778 0,-22.223356 7.32361,0 7.3236,0 0,22.223356 0,22.223356 -7.3236,0 -7.32361,0 0,-22.223356 z"
       id="path3326"
       inkscape:connector-curvature="0"
       transform="translate(0,827.36218)" />
    <rect
       style="fill:#000000;stroke:none"
       id="rect3072-51"
       width="15"
       height="15"
       x="90"
       y="947.36218" />
    <rect
       style="fill:#000000;stroke:none"
       id="rect3072-25"
       width="15"
       height="15"
       x="105"
       y="947.36218" />
    <rect
       style="fill:#000000;stroke:none"
       id="rect3072-652"
       width="15"
       height="15"
       x="120"
       y="947.36218" />
    <rect
       style="fill:#000000;stroke:none"
       id="rect3072-23"
       width="15"
       height="15"
       x="120"
       y="932.36218" />
    <rect
       style="fill:#000000;stroke:none"
       id="rect3072-11"
       width="15"
       height="15"
       x="120"
       y="917.36218" />
    <rect
       style="fill:#808080;stroke:none"
       id="rect3363"
       width="15"
       height="15"
       x="60"
       y="60"
       transform="translate(0,827.36218)" />
    <rect
       style="fill:#808080;fill-opacity:1;stroke:none"
       id="rect3365"
       width="15"
       height="15"
       x="105"
       y="105"
       transform="translate(0,827.36218)" />
    <path
       style="fill:#808080;fill-opacity:1;stroke:none"
       d="m 45.25421,149.79716 0,-14.64286 7.442368,0 7.442368,0 0.235576,-10.98214 c 0.129567,-6.04018 0.235859,-16.24554 0.236204,-22.67858 l 6.27e-4,-11.696424 -7.678571,0 -7.678572,0 0,-22.142857 0,-22.142857 22.142858,0 22.142857,0 0,7.316147 0,7.316147 22.857145,0.0051 22.85714,0.0051 0,-7.321282 0,-7.321283 14.82143,0 14.82143,0 0,22.142857 0,22.142857 -7.67857,0 -7.67858,0 0,15.357144 0,15.35714 7.67858,0 7.67857,0 0,21.96429 0,21.96428 -22.32143,0 -22.32143,0 0,-7.5 0,-7.5 -15.35714,0 -15.357145,0 0,7.5 0,7.5 -22.142857,0 -22.142858,0 0,-14.64285 z m 90,-37.32143 0,-22.678574 -22.85714,0 -22.857145,0 7.14e-4,11.696424 c 3.43e-4,6.43304 0.106636,16.6384 0.236204,22.67858 l 0.235575,10.98214 22.620942,0 22.62094,0 0,-22.67857 -9e-5,0 z"
       id="path3367"
       inkscape:connector-curvature="0"
       transform="translate(0,827.36218)" />
    <path
       style="fill:#808080;fill-opacity:1;stroke:none"
       d="m 89.897068,157.11858 0,-7.32142 15.000002,0 15,0 0,7.32142 0,7.32143 -15,0 -15.000002,0 0,-7.32143 z"
       id="path3369"
       inkscape:connector-curvature="0"
       transform="translate(0,827.36218)" />
    <path
       style="fill:#808080;fill-opacity:1;stroke:none"
       d="m 89.897068,157.11858 0,-7.32142 15.000002,0 15,0 0,7.32142 0,7.32143 -15,0 -15.000002,0 0,-7.32143 z"
       id="path3371"
       inkscape:connector-curvature="0"
       transform="translate(0,827.36218)" />
    <path
       style="fill:#808080;fill-opacity:1;stroke:none"
       d="m 180.04824,142.47573 c 2.9e-4,-4.125 0.0523,-5.76359 0.11553,-3.64131 0.0633,2.12229 0.063,5.49729 -5.3e-4,7.5 -0.0635,2.00272 -0.11529,0.26631 -0.115,-3.85869 z"
       id="path3373"
       inkscape:connector-curvature="0"
       transform="translate(0,827.36218)" />
    <rect
       style="fill:#000000;stroke:none"
       id="rect3072-327-6"
       width="15"
       height="15"
       x="75"
       y="902.36218" />
    <rect
       style="fill:#000000;stroke:none"
       id="rect3072-327-69"
       width="15"
       height="15"
       x="135"
       y="902.36218" />
    <rect
       style="fill:#000000;stroke:none"
       id="rect3072-327-2"
       width="15"
       height="15"
       x="135"
       y="962.36218" />
    <rect
       style="fill:#000000;stroke:none"
       id="rect3072-327-5"
       width="15"
       height="15"
       x="75"
       y="962.36218" />
  </g>
</svg>
